<svg xmlns="http://www.w3.org/2000/svg" viewBox="0 0 60 30">
  <rect width="60" height="30" fill="#de2910"/>
  <g fill="#ffde00">
    <polygon points="10,6 11.8,10.5 16.5,10.5 12.8,13.5 14.2,18 10,15 5.8,18 7.2,13.5 3.5,10.5 8.2,10.5"/>
    <polygon points="18,10 19,11.5 20.5,11.5 19.2,12.7 19.8,14.5 18,13.2 16.2,14.5 16.8,12.7 15.5,11.5 17,11.5"/>
    <polygon points="21,14 22,15.5 23.5,15.5 22.2,16.7 22.8,18.5 21,17.2 19.2,18.5 19.8,16.7 18.5,15.5 20,15.5"/>
    <polygon points="21,18 22,19.5 23.5,19.5 22.2,20.7 22.8,22.5 21,21.2 19.2,22.5 19.8,20.7 18.5,19.5 20,19.5"/>
    <polygon points="19.6,7.5 20.4,9 22,9 20.5,10 21.2,11.5 19.6,10.5 18,11.5 18.7,10 17.2,9 18.8,9"/>
  </g>
</svg>
