<svg xmlns="http://www.w3.org/2000/svg" viewBox="0 0 741 390">
  <rect width="741" height="390" fill="#b22234"/>
  <g fill="#fff">
    <rect y="30" width="741" height="30"/>
    <rect y="90" width="741" height="30"/>
    <rect y="150" width="741" height="30"/>
    <rect y="210" width="741" height="30"/>
    <rect y="270" width="741" height="30"/>
    <rect y="330" width="741" height="30"/>
  </g>
  <rect width="296.4" height="210" fill="#3c3b6e"/>
  <g fill="#fff">
    <g id="stars">
      <g>
        <circle cx="30" cy="30" r="10"/>
        <circle cx="90" cy="30" r="10"/>
        <circle cx="150" cy="30" r="10"/>
        <circle cx="210" cy="30" r="10"/>
        <circle cx="270" cy="30" r="10"/>
      </g>
      <g transform="translate(0,60)">
        <circle cx="60" cy="30" r="10"/>
        <circle cx="120" cy="30" r="10"/>
        <circle cx="180" cy="30" r="10"/>
        <circle cx="240" cy="30" r="10"/>
      </g>
      <g transform="translate(0,120)">
        <circle cx="30" cy="30" r="10"/>
        <circle cx="90" cy="30" r="10"/>
        <circle cx="150" cy="30" r="10"/>
        <circle cx="210" cy="30" r="10"/>
        <circle cx="270" cy="30" r="10"/>
      </g>
      <g transform="translate(0,180)">
        <circle cx="60" cy="30" r="10"/>
        <circle cx="120" cy="30" r="10"/>
        <circle cx="180" cy="30" r="10"/>
        <circle cx="240" cy="30" r="10"/>
      </g>
    </g>
  </g>
</svg>
